<svg xmlns="http://www.w3.org/2000/svg" width="48" height="48">
  <path d="M33.6 24.2c-.1-3.9 3.2-5.8 3.3-5.9-1.8-2.7-4.6-3.1-5.6-3.1-2.4-.2-4.7 1.4-5.9 1.4-1.2 0-3.1-1.4-5.1-1.3-2.6.1-5 1.5-6.3 3.8-2.7 4.7-.7 11.6 1.9 15.4 1.3 1.9 2.9 4.1 5 4 2-.1 2.8-1.3 5.3-1.3 2.5 0 3.2 1.3 5.3 1.3 2.2 0 3.6-1.9 4.9-3.8 1.6-2.3 2.2-4.5 2.2-4.6-.1-.1-4.3-1.7-4.4-6z" fill="#000"></path>
  <path d="M29.6 11.2c1.1-1.3 1.9-3.2 1.7-5.2-1.6.1-3.5 1.1-4.6 2.4-1 1.2-1.9 3.1-1.7 4.9 1.8.1 3.6-.9 4.6-2.1z" fill="#000"></path>
</svg>
