<svg xmlns="http://www.w3.org/2000/svg" width="48" height="48">
  <path fill="#EA4335" d="M24 9.5c3.5 0 6.6 1.2 9 3.2l6.7-6.7C35.2 1.9 30 0 24 0 14.6 0 6.5 5.5 2.7 13.5l7.8 6.1C12.4 13.1 17.7 9.5 24 9.5z"></path>
  <path fill="#34A853" d="M46.1 24.5c0-1.6-.2-3.2-.4-4.7H24v9h12.6c-.5 2.6-2 4.8-4.2 6.3l7.7 6.1c4.5-4.1 6.9-10.2 6.9-16.7z"></path>
  <path fill="#4A90E2" d="M11.5 28.5C10.6 26.3 10 23.8 10 21.2c0-2.6.6-5.1 1.5-7.3l-7.8-6C1.3 11.5 0 17.6 0 24c0 6.4 1.3 12.5 3.7 17l7.8-6c-.9-2.2-1.5-4.7-1.5-7.3z"></path>
  <path fill="#FBBC05" d="M24 48c6 0 11.2-2 15.3-5.5l-7.7-6.1c-2.2 1.5-5 2.4-7.6 2.4-6.4 0-11.7-4-13.8-9.5l-7.8 6.1C6.5 42.5 14.6 48 24 48z"></path>
</svg>
